<svg width="1288" height="763" viewBox="0 0 1288 763" fill="none" xmlns="http://www.w3.org/2000/svg">
<g clip-path="url(#clip0_103_56437)">
<line x1="0.25" y1="-1.09278e-08" x2="0.250033" y2="763" stroke="#DEDEDE" stroke-opacity="0.35" stroke-width="0.5"/>
<line x1="34.25" y1="-1.09278e-08" x2="34.25" y2="763" stroke="#DEDEDE" stroke-opacity="0.35" stroke-width="0.5"/>
<line x1="68.2501" y1="-1.09278e-08" x2="68.2502" y2="763" stroke="#DEDEDE" stroke-opacity="0.35" stroke-width="0.5"/>
<line x1="102.25" y1="-1.09278e-08" x2="102.25" y2="763" stroke="#DEDEDE" stroke-opacity="0.35" stroke-width="0.5"/>
<line x1="136.25" y1="-1.09278e-08" x2="136.25" y2="763" stroke="#DEDEDE" stroke-opacity="0.35" stroke-width="0.5"/>
<line x1="170.25" y1="-1.09278e-08" x2="170.25" y2="763" stroke="#DEDEDE" stroke-opacity="0.35" stroke-width="0.5"/>
<line x1="204.25" y1="-1.09278e-08" x2="204.25" y2="763" stroke="#DEDEDE" stroke-opacity="0.35" stroke-width="0.5"/>
<line x1="238.25" y1="-1.09278e-08" x2="238.25" y2="763" stroke="#DEDEDE" stroke-opacity="0.35" stroke-width="0.5"/>
<line x1="272.25" y1="-1.09278e-08" x2="272.25" y2="763" stroke="#DEDEDE" stroke-opacity="0.35" stroke-width="0.5"/>
<line x1="306.25" y1="-1.09278e-08" x2="306.25" y2="763" stroke="#DEDEDE" stroke-opacity="0.35" stroke-width="0.5"/>
<line x1="340.25" y1="-1.09278e-08" x2="340.25" y2="763" stroke="#DEDEDE" stroke-opacity="0.35" stroke-width="0.5"/>
<line x1="374.25" y1="-1.09278e-08" x2="374.25" y2="763" stroke="#DEDEDE" stroke-opacity="0.35" stroke-width="0.5"/>
<line x1="408.25" y1="-1.09278e-08" x2="408.25" y2="763" stroke="#DEDEDE" stroke-opacity="0.35" stroke-width="0.5"/>
<line x1="442.25" y1="-1.09278e-08" x2="442.251" y2="763" stroke="#DEDEDE" stroke-opacity="0.35" stroke-width="0.5"/>
<line x1="476.25" y1="-1.09278e-08" x2="476.251" y2="763" stroke="#DEDEDE" stroke-opacity="0.35" stroke-width="0.5"/>
<line x1="510.25" y1="-1.09278e-08" x2="510.251" y2="763" stroke="#DEDEDE" stroke-opacity="0.35" stroke-width="0.5"/>
<line x1="544.25" y1="-1.09278e-08" x2="544.251" y2="763" stroke="#DEDEDE" stroke-opacity="0.35" stroke-width="0.5"/>
<line x1="578.25" y1="-1.09278e-08" x2="578.251" y2="763" stroke="#DEDEDE" stroke-opacity="0.35" stroke-width="0.5"/>
<line x1="612.251" y1="-1.09278e-08" x2="612.251" y2="763" stroke="#DEDEDE" stroke-opacity="0.35" stroke-width="0.5"/>
<line x1="646.251" y1="-1.09278e-08" x2="646.251" y2="763" stroke="#DEDEDE" stroke-opacity="0.35" stroke-width="0.5"/>
<line x1="680.251" y1="-1.09278e-08" x2="680.251" y2="763" stroke="#DEDEDE" stroke-opacity="0.35" stroke-width="0.5"/>
<line x1="714.251" y1="-1.09278e-08" x2="714.251" y2="763" stroke="#DEDEDE" stroke-opacity="0.35" stroke-width="0.5"/>
<line x1="748.251" y1="-1.09278e-08" x2="748.251" y2="763" stroke="#DEDEDE" stroke-opacity="0.35" stroke-width="0.5"/>
<line x1="782.251" y1="-1.09278e-08" x2="782.251" y2="763" stroke="#DEDEDE" stroke-opacity="0.35" stroke-width="0.5"/>
<line x1="816.251" y1="-1.09278e-08" x2="816.251" y2="763" stroke="#DEDEDE" stroke-opacity="0.35" stroke-width="0.5"/>
<line x1="850.251" y1="-1.09278e-08" x2="850.251" y2="763" stroke="#DEDEDE" stroke-opacity="0.35" stroke-width="0.5"/>
<line x1="884.251" y1="-1.09278e-08" x2="884.251" y2="763" stroke="#DEDEDE" stroke-opacity="0.35" stroke-width="0.5"/>
<line x1="918.251" y1="-1.09278e-08" x2="918.251" y2="763" stroke="#DEDEDE" stroke-opacity="0.35" stroke-width="0.5"/>
<line x1="952.251" y1="-1.09278e-08" x2="952.251" y2="763" stroke="#DEDEDE" stroke-opacity="0.35" stroke-width="0.5"/>
<line x1="986.251" y1="-1.09278e-08" x2="986.252" y2="763" stroke="#DEDEDE" stroke-opacity="0.35" stroke-width="0.5"/>
<line x1="1020.25" y1="-1.09278e-08" x2="1020.25" y2="763" stroke="#DEDEDE" stroke-opacity="0.35" stroke-width="0.5"/>
<line x1="1054.25" y1="-1.09278e-08" x2="1054.25" y2="763" stroke="#DEDEDE" stroke-opacity="0.35" stroke-width="0.5"/>
<line x1="1088.25" y1="-1.09278e-08" x2="1088.25" y2="763" stroke="#DEDEDE" stroke-opacity="0.35" stroke-width="0.5"/>
<line x1="1122.25" y1="-1.09278e-08" x2="1122.25" y2="763" stroke="#DEDEDE" stroke-opacity="0.35" stroke-width="0.5"/>
<line x1="1156.25" y1="-1.09278e-08" x2="1156.25" y2="763" stroke="#DEDEDE" stroke-opacity="0.35" stroke-width="0.5"/>
<line x1="1190.25" y1="-1.09278e-08" x2="1190.25" y2="763" stroke="#DEDEDE" stroke-opacity="0.35" stroke-width="0.5"/>
<line x1="1224.25" y1="-1.09278e-08" x2="1224.25" y2="763" stroke="#DEDEDE" stroke-opacity="0.35" stroke-width="0.5"/>
<line x1="1258.25" y1="-1.09278e-08" x2="1258.25" y2="763" stroke="#DEDEDE" stroke-opacity="0.35" stroke-width="0.5"/>
<line x1="1296" y1="28.75" x2="-533" y2="28.75" stroke="#DEDEDE" stroke-opacity="0.35" stroke-width="0.5"/>
<line x1="1296" y1="62.75" x2="-533" y2="62.75" stroke="#DEDEDE" stroke-opacity="0.35" stroke-width="0.5"/>
<line x1="1296" y1="96.75" x2="-533" y2="96.75" stroke="#DEDEDE" stroke-opacity="0.35" stroke-width="0.5"/>
<line x1="1296" y1="130.75" x2="-533" y2="130.75" stroke="#DEDEDE" stroke-opacity="0.35" stroke-width="0.5"/>
<line x1="1296" y1="164.75" x2="-533" y2="164.75" stroke="#DEDEDE" stroke-opacity="0.35" stroke-width="0.5"/>
<line x1="1296" y1="198.75" x2="-533" y2="198.75" stroke="#DEDEDE" stroke-opacity="0.35" stroke-width="0.5"/>
<line x1="1296" y1="232.75" x2="-533" y2="232.75" stroke="#DEDEDE" stroke-opacity="0.35" stroke-width="0.5"/>
<line x1="1296" y1="266.75" x2="-533" y2="266.75" stroke="#DEDEDE" stroke-opacity="0.35" stroke-width="0.5"/>
<line x1="1296" y1="300.75" x2="-533" y2="300.75" stroke="#DEDEDE" stroke-opacity="0.35" stroke-width="0.5"/>
<line x1="1296" y1="334.75" x2="-533" y2="334.75" stroke="#DEDEDE" stroke-opacity="0.35" stroke-width="0.5"/>
<line x1="1296" y1="368.75" x2="-533" y2="368.75" stroke="#DEDEDE" stroke-opacity="0.35" stroke-width="0.5"/>
<line x1="1296" y1="402.75" x2="-533" y2="402.75" stroke="#DEDEDE" stroke-opacity="0.35" stroke-width="0.5"/>
<line x1="1296" y1="436.75" x2="-533" y2="436.75" stroke="#DEDEDE" stroke-opacity="0.35" stroke-width="0.5"/>
<line x1="1296" y1="470.75" x2="-533" y2="470.75" stroke="#DEDEDE" stroke-opacity="0.35" stroke-width="0.5"/>
<line x1="1296" y1="504.75" x2="-533" y2="504.75" stroke="#DEDEDE" stroke-opacity="0.35" stroke-width="0.5"/>
<line x1="1296" y1="538.75" x2="-533" y2="538.75" stroke="#DEDEDE" stroke-opacity="0.35" stroke-width="0.5"/>
<line x1="1296" y1="572.75" x2="-533" y2="572.75" stroke="#DEDEDE" stroke-opacity="0.35" stroke-width="0.5"/>
<line x1="1296" y1="606.75" x2="-533" y2="606.75" stroke="#DEDEDE" stroke-opacity="0.35" stroke-width="0.5"/>
<line x1="1296" y1="640.75" x2="-533" y2="640.75" stroke="#DEDEDE" stroke-opacity="0.35" stroke-width="0.5"/>
<line x1="1296" y1="674.75" x2="-533" y2="674.75" stroke="#DEDEDE" stroke-opacity="0.35" stroke-width="0.5"/>
<line x1="1296" y1="708.75" x2="-533" y2="708.75" stroke="#DEDEDE" stroke-opacity="0.35" stroke-width="0.5"/>
<line x1="1296" y1="742.75" x2="-533" y2="742.75" stroke="#DEDEDE" stroke-opacity="0.35" stroke-width="0.5"/>
</g>
<defs>
<clipPath id="clip0_103_56437">
<rect width="1288" height="763" fill="white"/>
</clipPath>
</defs>
</svg>
